<?xml version="1.0" encoding="UTF-8"?><svg id="a" xmlns="http://www.w3.org/2000/svg" viewBox="0 0 657.17 122.15"><g id="c"><path id="d" d="m10.55,4.69c-2.67,0-4.82,2.15-4.82,4.82v101.16c0,2.67,2.15,4.82,4.82,4.82h101.16c2.67,0,4.82-2.15,4.82-4.82V9.51c0-2.67-2.15-4.82-4.82-4.82H10.55Zm69.72,15.78h15.53c2.29,0,4.14,1.85,4.14,4.14v15.53c0,2.29-1.85,4.14-4.14,4.14h-15.53c-2.29,0-4.14-1.85-4.14-4.14v-4.24h-30.2v3.67c0,.34-.03.67-.1.99l33.92,33.92c.23-.04.47-.07.72-.07h15.53c2.29,0,4.14,1.85,4.14,4.14v15.53c0,2.29-1.85,4.14-4.14,4.14h-15.53c-2.29,0-4.14-1.85-4.14-4.14v-4.09h-30.4v5.55c0,2.29-1.85,4.14-4.14,4.14h-15.53c-2.29,0-4.14-1.85-4.14-4.14v-15.53c0-2.29,1.85-4.14,4.14-4.14h15.53c2.29,0,4.14,1.85,4.14,4.14v3.47h30.4v-3.21l-35.53-35.53s-.03,0-.05,0h-13.46c-2.87,0-5.18-2.31-5.18-5.18v-13.46c0-2.87,2.31-5.18,5.18-5.18h13.46c2.87,0,5.18,2.31,5.18,5.18v3.27h30.2v-4.77c0-2.29,1.85-4.14,4.14-4.14Z" style="fill:#fff; fill-rule:evenodd; stroke-width:0px;"/></g><path d="m129.96,18.98h29.99c3.05,0,5.69.06,7.9.17,6.94.38,12.38,2.36,16.31,5.92,3.93,3.57,5.9,8.69,5.9,15.37s-1.98,11.69-5.95,15.25c-3.97,3.57-9.39,5.56-16.25,5.98-2.14.11-4.77.17-7.9.17h-17.69v36.12h-12.31V18.98Zm29.99,30.74c2.56,0,4.58-.04,6.07-.11,2.94-.31,5.49-1.19,7.67-2.66,2.17-1.47,3.45-3.63,3.83-6.5-.38-2.79-1.68-4.93-3.89-6.44-2.21-1.51-4.75-2.39-7.61-2.66-1.37-.04-3.4-.06-6.07-.06h-17.69v18.43h17.69Z" style="fill:#fff; stroke-width:0px;"/><path d="m195.06,37.7h11.96v2.06c4.58-2.4,10.53-3.61,17.86-3.61v12.02h-4.98c-2.29,0-4.42.55-6.38,1.66-1.97,1.11-3.54,2.78-4.72,5.01-1.18,2.23-1.77,4.95-1.77,8.16v34.97h-11.96v-60.27Z" style="fill:#fff; stroke-width:0px;"/><path d="m240.86,95.68c-4.2-2.71-7.46-6.49-9.79-11.33-2.33-4.85-3.49-10.34-3.49-16.48s1.16-11.74,3.49-16.57c2.33-4.83,5.58-8.59,9.76-11.28,4.18-2.69,8.98-4.04,14.4-4.04s10.17,1.34,14.37,4.04c4.2,2.69,7.47,6.45,9.82,11.28s3.52,10.35,3.52,16.57-1.17,11.63-3.52,16.46-5.62,8.6-9.82,11.33c-4.2,2.73-8.99,4.09-14.37,4.09s-10.17-1.36-14.37-4.06Zm22.44-10.73c2.37-1.66,4.21-3.98,5.52-6.95,1.32-2.98,1.97-6.35,1.97-10.13s-.65-7.29-1.95-10.3c-1.3-3.01-3.13-5.35-5.49-7.01-2.37-1.66-5.08-2.49-8.13-2.49s-5.76.83-8.13,2.49c-2.37,1.66-4.21,4-5.52,7.01-1.32,3.01-1.97,6.45-1.97,10.3s.67,7.15,2,10.13c1.33,2.98,3.19,5.29,5.55,6.95,2.37,1.66,5.06,2.49,8.07,2.49s5.7-.83,8.07-2.49Z" style="fill:#fff; stroke-width:0px;"/><path d="m292.39,87.32c-.04-1.45-.06-3.8-.06-7.04v-32.34h-6.01v-11.79h6.01v-17.17h11.96v17.17h9.9v11.79h-9.9v32.74c.04,2.1.49,3.61,1.34,4.52.86.92,2.39,1.37,4.61,1.37,1.18,0,2.59-.11,4.24-.34v11.39c-3.97.57-7.23.86-9.79.86-7.82,0-11.92-3.72-12.31-11.16Z" style="fill:#fff; stroke-width:0px;"/><path d="m331.14,95.68c-4.2-2.71-7.46-6.49-9.79-11.33-2.33-4.85-3.49-10.34-3.49-16.48s1.16-11.74,3.49-16.57c2.33-4.83,5.58-8.59,9.76-11.28,4.18-2.69,8.98-4.04,14.4-4.04s10.17,1.34,14.37,4.04c4.2,2.69,7.47,6.45,9.82,11.28s3.52,10.35,3.52,16.57-1.17,11.63-3.52,16.46-5.62,8.6-9.82,11.33c-4.2,2.73-8.99,4.09-14.37,4.09s-10.17-1.36-14.37-4.06Zm22.44-10.73c2.37-1.66,4.21-3.98,5.52-6.95,1.32-2.98,1.97-6.35,1.97-10.13s-.65-7.29-1.95-10.3c-1.3-3.01-3.13-5.35-5.5-7.01-2.37-1.66-5.08-2.49-8.13-2.49s-5.76.83-8.13,2.49c-2.37,1.66-4.21,4-5.52,7.01-1.32,3.01-1.97,6.45-1.97,10.3s.67,7.15,2,10.13c1.33,2.98,3.19,5.29,5.55,6.95,2.37,1.66,5.06,2.49,8.07,2.49s5.7-.83,8.07-2.49Z" style="fill:#fff; stroke-width:0px;"/><path d="m393.72,96.36c-4.58-1.99-8.23-4.82-10.94-8.51s-4.28-7.99-4.72-12.93h8.67c.18,3.2,1.24,6.01,3.18,8.42,1.93,2.41,4.57,4.27,7.9,5.58s7.17,1.96,11.52,1.96c7.03,0,12.17-1.4,15.41-4.2,1.33-1.18,2.35-2.6,3.07-4.25s1.08-3.46,1.08-5.41c0-2.87-.96-5.18-2.87-6.93-1.92-1.75-4.34-3.09-7.26-4.03-2.93-.94-7.1-2.02-12.51-3.23-5.67-1.21-10.31-2.52-13.92-3.92-3.61-1.4-6.57-3.45-8.87-6.16-2.3-2.71-3.45-6.33-3.45-10.86s1.13-8.3,3.4-11.55c2.27-3.24,5.54-5.72,9.83-7.43,4.29-1.71,9.38-2.57,15.28-2.57,4.9,0,9.25.84,13.07,2.51,3.81,1.68,6.88,4.07,9.2,7.18s3.72,6.79,4.2,11.02h-8.67c-.29-3.98-2.1-7.05-5.41-9.23-3.31-2.17-7.88-3.26-13.7-3.26-3.79,0-7.1.52-9.92,1.57-2.82,1.05-4.99,2.53-6.52,4.45s-2.29,4.14-2.29,6.68c0,2.73.72,4.89,2.16,6.49,1.44,1.6,3.5,2.87,6.19,3.81,2.69.94,6.48,1.91,11.38,2.9,4.27.88,7.87,1.74,10.8,2.57,2.93.83,5.66,1.98,8.2,3.45,2.69,1.25,4.99,3.19,6.91,5.8,2.21,3.02,3.31,6.46,3.31,10.33,0,4.68-1.12,8.72-3.37,12.13-2.25,3.41-5.46,6.02-9.64,7.84-4.18,1.82-9.14,2.73-14.89,2.73s-11.19-.99-15.77-2.98Z" style="fill:#fff; stroke-width:0px;"/><path d="m466,89.68v8.23c-2.76.41-5.45.61-8.07.61-6.63,0-10.18-3.19-10.66-9.56-.07-1.55-.11-3.94-.11-7.18v-35.41h-6.19v-8.07h6.19v-16.57h8.34v16.57h10.17v8.07h-10.17v35.8c0,2.62.02,4.36.06,5.25.11,1.14.41,1.96.91,2.46.5.5,1.32.75,2.46.75s3.54-.31,7.07-.94Z" style="fill:#fff; stroke-width:0px;"/><path d="m477.47,94.4c-3.59-3.26-5.7-7.87-6.33-13.84-.18-1.47-.3-2.78-.36-3.92-.05-1.14-.08-2.8-.08-4.97v-33.37h8.29v32.54c0,2.84.15,5.54.44,8.12.59,3.54,1.95,6.43,4.09,8.67,2.13,2.25,4.97,3.37,8.51,3.37,2.69,0,5.19-.64,7.51-1.93,2.32-1.29,4.19-3.24,5.61-5.86,1.42-2.62,2.13-5.8,2.13-9.56v-35.36h8.4v59.66h-8.4v-3.76c-2.06,1.66-4.39,2.92-6.99,3.78-2.6.87-5.35,1.3-8.26,1.3-6.11,0-10.97-1.63-14.56-4.89Z" style="fill:#fff; stroke-width:0px;"/><path d="m534.89,95.92c-4.03-2.61-7.16-6.26-9.39-10.94-2.23-4.68-3.34-10-3.34-15.97s1.11-11.34,3.34-16.02c2.23-4.68,5.36-8.32,9.39-10.94,4.03-2.62,8.63-3.92,13.78-3.92,3.54,0,6.84.64,9.92,1.91,3.07,1.27,5.81,3.1,8.2,5.5v-23.81h8.23v76.24h-8.23v-5.69c-2.43,2.43-5.17,4.3-8.23,5.61-3.06,1.31-6.35,1.96-9.89,1.96-5.16,0-9.75-1.31-13.78-3.92Zm23.2-7.51c2.74-1.88,4.88-4.5,6.41-7.87,1.53-3.37,2.29-7.21,2.29-11.52s-.76-8.27-2.29-11.66c-1.53-3.39-3.67-6.03-6.41-7.93-2.74-1.9-5.88-2.84-9.42-2.84s-6.62.95-9.36,2.84c-2.74,1.9-4.88,4.55-6.41,7.96-1.53,3.41-2.29,7.28-2.29,11.63s.76,8.15,2.29,11.52,3.66,5.99,6.41,7.87c2.74,1.88,5.87,2.82,9.36,2.82s6.67-.94,9.42-2.82Z" style="fill:#fff; stroke-width:0px;"/><path d="m583.96,32.25c-.99-1.01-1.49-2.22-1.49-3.62s.5-2.55,1.49-3.56c1-1.01,2.17-1.52,3.54-1.52s2.55.51,3.56,1.52c1.01,1.01,1.52,2.2,1.52,3.56s-.51,2.56-1.52,3.59c-1.01,1.03-2.2,1.55-3.56,1.55s-2.54-.51-3.54-1.52Zm-.61,6.05h8.4v59.66h-8.4v-59.66Z" style="fill:#fff; stroke-width:0px;"/><path d="m611.21,95.84c-4.01-2.63-7.14-6.29-9.36-10.97-2.23-4.68-3.34-9.98-3.34-15.91s1.11-11.39,3.34-16.05c2.23-4.66,5.35-8.29,9.36-10.88,4.01-2.6,8.62-3.9,13.81-3.9s9.8,1.3,13.81,3.9c4.01,2.6,7.14,6.22,9.39,10.88,2.25,4.66,3.37,10.01,3.37,16.05s-1.12,11.23-3.37,15.91c-2.25,4.68-5.39,8.33-9.42,10.97-4.03,2.63-8.63,3.95-13.78,3.95s-9.8-1.32-13.81-3.95Zm23.2-7.49c2.76-1.88,4.91-4.5,6.44-7.87,1.53-3.37,2.29-7.21,2.29-11.52s-.76-8.27-2.29-11.66c-1.53-3.39-3.67-6.03-6.41-7.93-2.74-1.9-5.88-2.84-9.42-2.84s-6.63.95-9.39,2.84c-2.76,1.9-4.91,4.54-6.44,7.93-1.53,3.39-2.29,7.27-2.29,11.66s.77,8.15,2.32,11.52c1.55,3.37,3.69,5.99,6.44,7.87,2.74,1.88,5.87,2.82,9.36,2.82s6.63-.94,9.39-2.82Z" style="fill:#fff; stroke-width:0px;"/></svg>